<?xml version="1.0" encoding="utf-8"?>
<!-- Generator: Adobe Illustrator 21.0.2, SVG Export Plug-In . SVG Version: 6.00 Build 0)  -->
<svg version="1.1" xmlns="http://www.w3.org/2000/svg" xmlns:xlink="http://www.w3.org/1999/xlink" x="0px" y="0px" width="792px"
	 height="612px" viewBox="0 0 792 612" style="enable-background:new 0 0 792 612;" xml:space="preserve">
<style type="text/css">
	.st0{fill:none;}
	.st1{fill:none;stroke:#65E700;stroke-width:0.6106;stroke-miterlimit:10;}
	.st2{fill:none;stroke:#65E700;stroke-width:0.2942;stroke-miterlimit:10;}
	.st3{fill:none;stroke:#F15A29;stroke-width:0.2942;stroke-miterlimit:10;}
	.st4{opacity:0.27;}
	.st5{fill:#BECCEC;}
	.st6{fill:#D9E1F4;}
	.st7{opacity:0.3;fill:#BECCEC;}
	.st8{fill:#603913;}
	.st9{fill:#27AAE1;}
	.st10{fill:#8B5E3C;}
	.st11{fill:#FFB083;}
	.st12{fill:#07758C;}
	.st13{fill:#FFCAAC;}
	.st14{fill:#EF4136;}
	.st15{fill:#F15A29;}
	.st16{opacity:0.58;fill:url(#New_Pattern_Swatch_4);}
	.st17{fill:#EE2700;}
	.st18{fill:#FF9254;}
	.st19{fill:#009BD5;}
	.st20{fill:#C1C0C0;}
	.st21{fill:#FFFFFF;}
	.st22{fill:#726658;}
	.st23{fill:#1B75BC;}
	.st24{opacity:0.41;fill:#FFFFFF;}
	.st25{fill:none;stroke:#726658;stroke-miterlimit:10;}
	.st26{fill:#C49A6C;}
	.st27{fill:#231F20;}
	.st28{fill:#726F70;}
	.st29{fill:#9D9B9C;}
	.st30{fill:#006580;}
	.st31{fill:#262262;}
	.st32{fill:#040041;}
	.st33{fill:#9B8579;}
	.st34{fill:#754C29;}
	.st35{fill:#53BBE7;}
	.st36{fill:#D2B390;}
	.st37{fill:#AF9D93;}
	.st38{fill:#006838;}
	.st39{fill:#F9E300;}
	.st40{fill:#FDF392;}
	.st41{opacity:0.5;fill:url(#SVGID_1_);}
	.st42{fill:#005038;}
	.st43{fill:url(#New_Pattern_Swatch_3);}
	.st44{fill:#F37146;}
	.st45{fill:#CD3600;}
	.st46{fill:#92278F;}
	.st47{fill:#45D8FF;}
	.st48{fill:#D000A3;}
	.st49{fill:#5C3100;}
	.st50{fill:#C2B59B;}
	.st51{opacity:0.23;fill:url(#New_Pattern_Swatch_2);}
	.st52{display:none;}
	.st53{display:inline;}
	.st54{opacity:0.6;fill:#FD6601;}
	.st55{fill:#FDBE57;}
	.st56{display:inline;opacity:0.2;fill:#BDBDBD;}
	.st57{display:inline;opacity:0.27;}
</style>
<pattern  y="612" width="13.5" height="13.5" patternUnits="userSpaceOnUse" id="New_Pattern_Swatch_2" viewBox="0 -13.5 13.5 13.5" style="overflow:visible;">
	<g>
		<rect y="-13.5" class="st0" width="13.5" height="13.5"/>
		<line class="st1" x1="5.5" y1="-13.5" x2="5.5" y2="0"/>
		<line class="st1" x1="8" y1="-13.5" x2="8" y2="0"/>
		<line class="st1" x1="13.5" y1="-8" x2="0" y2="-8"/>
		<line class="st1" x1="13.5" y1="-5.5" x2="0" y2="-5.5"/>
	</g>
</pattern>
<pattern  y="612" width="6.5" height="6.5" patternUnits="userSpaceOnUse" id="New_Pattern_Swatch_3" viewBox="0 -6.5 6.5 6.5" style="overflow:visible;">
	<g>
		<rect y="-6.5" class="st0" width="6.5" height="6.5"/>
		<line class="st2" x1="2.7" y1="-6.5" x2="2.7" y2="0"/>
		<line class="st2" x1="3.8" y1="-6.5" x2="3.8" y2="0"/>
		<line class="st2" x1="6.5" y1="-3.8" x2="0" y2="-3.8"/>
		<line class="st2" x1="6.5" y1="-2.7" x2="0" y2="-2.7"/>
	</g>
</pattern>
<pattern  y="612" width="6.5" height="6.5" patternUnits="userSpaceOnUse" id="New_Pattern_Swatch_4" viewBox="0 -6.5 6.5 6.5" style="overflow:visible;">
	<g>
		<rect y="-6.5" class="st0" width="6.5" height="6.5"/>
		<line class="st3" x1="2.7" y1="-6.5" x2="2.7" y2="0"/>
		<line class="st3" x1="3.8" y1="-6.5" x2="3.8" y2="0"/>
		<line class="st3" x1="6.5" y1="-3.8" x2="0" y2="-3.8"/>
		<line class="st3" x1="6.5" y1="-2.7" x2="0" y2="-2.7"/>
	</g>
</pattern>
<g id="Mountain_2">
	<g class="st4">
		<polygon class="st5" points="350.1,153.6 294.6,113.1 191.1,255.6 326.1,266.1 		"/>
		<path class="st5" d="M407.1,72.6c-18.6-5.2-32.9,37.8-50.5,29.9c-3.1-1.4-6.4-2.9-9.6-4.6L193.4,382.5l11.2,20.7H579l146.1,11.4
			l-186-265.5l-48.5,49l-46-107.5C429.6,85.7,422.3,76.9,407.1,72.6z"/>
		<path class="st5" d="M191.7,203c-10,5-19.8,10.1-29.6,15.4L74.5,380.7h288.4L252.5,176.1C231.9,184.3,211.5,193.1,191.7,203z"/>
		<path class="st6" d="M331,357.8l-90.4-162.2c-24.2,9.3-38.7,30.8-64.4,33l-14,26c11.5,14.7,35.6,42.2,35.6,42.2l7.7-53.8
			l54.3,87.4l-3.9-79.5L331,357.8z"/>
		<path class="st6" d="M445.5,149.9c-10.7-4.6-33.7-50.4-44.4-54.8c-17.8-7.4-23.3,26.8-41.7,20.9l-22.7,42
			c11.5,14.7,52.5,38,52.5,38l-9.3-49.6l66.2,65.5l-15.9-57.5l75.3,107L445.5,149.9z"/>
		<path class="st5" d="M586.2,196.7c-15.7,7.9-31.2,15.9-46.6,24.4l-98.3,182.1h256.3L586.2,196.7z"/>
		<path class="st6" d="M558.2,203.2c-8,2.2-15.8,4.6-23.7,7.2l-20.8,38.4c7,9,21.8,25.8,21.8,25.8l4.7-32.9l33.1,53.4l-2.4-48.5
			l46,65.3L558.2,203.2z"/>
	</g>
</g>
<g id="Mtn_Shadow">
	<path class="st7" d="M83.1,384.6c-6,0-39,9-30,10.5c9,1.5,93,7.5,103.5,15c10.5,7.5-15,13.5-27,27c-12,13.5-36,21,34.5,24
		c70.5,3,225-13.5,148.5,15c-76.5,28.5-106.5,51,7.5,55.5s247.5-27,142.5,6c-105,33-214.5,39-87,40.5s148.5,10.5,217.5-4.5
		c69-15,169.5-12,91.5-33c-78-21-167.5-1.7-77.7-31.6c89.7-29.9,175.2-28.4,104.7-46.4c-70.5-18-84-34.5-36-40.5
		c48-6,100.5-4.5-6-16.5c-106.5-12-591-24-591-24"/>
</g>
<g id="Layer_7">
	<path class="st8" d="M402.7,316c0.1-1.2,0.2-2.5,0.5-3.8c1.2-6.3-0.7-9.4-6.1-12.1c-6.4-3.4-21.6,40.9-21.7,41.2
		c-1,2.9,3.8,10.7,5.7,12.5c8.1,7.8,16.5-3.5,21.3-9.7c2.5-3.2,4.5-7,4.9-11C407.8,326.5,402.3,322.8,402.7,316z"/>
	<path class="st9" d="M366,436.4c0,0-18.2-4.5-19.3-3.5c-1.1,0.9-3.3,2-1.2,8.2c2.1,6.2,6.2,7.3,11.6,4.2L366,436.4z"/>
	<g>
		<path class="st10" d="M398.3,327.9c-1.7,0.1-3.4,0-4.9-0.2l-0.3,0.2c0,0,1.7,3.8-6.8,10.6s-0.2,0.8-0.2,0.8s9.6-2.1,12.6-11.3
			C398.6,327.9,398.4,327.9,398.3,327.9z"/>
		<path class="st11" d="M347,388.7c-2.1,2.8-4.2,5.6-6.3,8.4c-1.1,1.4-2,1.8-3.6,2.5c-1.4,0.6-2.9,1.2-4.3,1.9
			c-0.9,0.4-1.1,1.2-1.4,2.1l7.5,2.5c0,0,2.2-2,2.6-1.8c0.4,0.2,0,2,0,2s2.2,1.5,2.2,1.5c-0.2-0.1,0.2-1.9,0.2-2.1
			c0.1-1.3,0.2-2.6,0.3-3.8c0.1-1.3,0.2-2.1,1.1-3.1c0.7-0.7,1.3-1.6,2-2.4c1.6-1.7,3-3.5,4.5-5.2c0.1-0.1,0.9-1.2,1-1.2
			C353,390,347,388.7,347,388.7z"/>
		<polygon class="st11" points="404.3,393.5 407.3,402.6 407.7,410 417.3,405.6 413,400.3 408.3,391 		"/>
		<path class="st12" d="M361,408.8l-1,9.3c0,0,10.8,13.6,12.3,14.1c1.5,0.5,20.6-2.3,20.6-2.3l4.5-19.8L361,408.8z"/>
		<path class="st13" d="M364.6,391.3l-2.8,13.6l-1.5,2.8l35.4,1l-5-15.1l1.3-5.3l6-38.7l-5-10.3l-5-0.5c0,0-4.5-3.5-4.3-7
			c0,0,7.5-4,8-7.3c0.5-3.3-6.5-25.4-10.6-22.6c-4,2.8-10,4.8-11.1,11.1s0.5,15.3,2.8,18.3c0,0,0.8,9.8-8.3,10.8c-9,1,0.5,1,0.5,1
			l-3.5,25.1L364.6,391.3z"/>
		<path class="st11" d="M373.4,337.6c2.3,0.4,9,1,10.3-1.3c0.3-0.5,0.6-0.8,0.9-1.1c-0.6-1.1-1.1-2.2-1-3.4c0,0,0.2-0.1,0.6-0.4
			c-0.1,0-0.1-0.1-0.2-0.1c-3.4,1.4-7.7,1.9-11.3,0.9c0,1.1-0.3,3.1-1.1,5C372.3,337.3,372.8,337.4,373.4,337.6z"/>
		<path class="st11" d="M379.5,318c2.4,4,6.9,6.5,10.8,8.7c0,0,0.1,0,0.1,0.1c0.7-0.8,1.2-1.6,1.3-2.3c0.5-3.3-6.5-25.4-10.6-22.6
			c-1.9,1.3-4.2,2.4-6.3,3.9C376.7,309.7,377.2,314.3,379.5,318z"/>
		<path class="st14" d="M391.9,388.2l6-38.7l-10.1-10c-2.2,3.4-7.1,5.4-11,5.2c-4-0.2-7.1-2.5-10.7-4.4c-3.1-0.2,1.3,7.6-1.5,6
			l-3.1,21.8l3,23.1l-2.8,13.6l-1.5,2.8l35.4,1l-5-15.1L391.9,388.2z"/>
		<path class="st15" d="M364.2,371.6c0.3,0.2,0.6,0.3,1,0.5c3.2-0.2,5.9-1.2,8.4-2.9c0.1-2,2.2-3.2,4-2.9c1.3-0.3,2.7,0.3,3.5,1.4
			c4.1,1.3,8.5,1,12.9,1c0.4,0,0.7,0.1,1,0.1l3-19.2l-6.6-6.6c-5,4.2-10.3,10.4-17.5,8.7c-3-0.7-6.4-2.5-9.3-4.7l-3,21.2l0.4,3
			C362.6,371,363.4,371.1,364.2,371.6z"/>
		<path class="st16" d="M391.9,388.2l6-38.7l-10.1-10c-2.2,3.4-7.1,5.4-11,5.2c-4-0.2-7.1-2.5-10.7-4.4c-3.1-0.2,1.3,7.6-1.5,6
			l-3.1,21.8l3,23.1l-2.8,13.6l-1.5,2.8l35.4,1l-5-15.1L391.9,388.2z"/>
		<path class="st17" d="M375.9,345.1c0.9,0.1,1.8-0.1,2.7-0.4c-0.6,0.1-1.2,0.1-1.8,0.1c-3-0.1-5.6-1.5-8.2-3
			C371.1,343.5,373.9,345,375.9,345.1z"/>
		<path class="st13" d="M376.1,429.9c0,0-18.8-16.6-18.8-16.6s-23.1-10.8-24.9-10.6c-1.2,0.2-2.4,0.7-3.6,1.1
			c-0.8,0.3-2,0.4-2.7,1.1c-0.7,0.7-0.8,2.7-1,3.7c-0.2,1.1-0.6,2.2-0.3,3.2c0.3,1,1.2,1.6,2,2.2c4.3,3,8.4,6.3,12.6,9.4
			c2.4,1.7,4.6,3.4,7.4,4.5c5.4,2.1,11,3.7,16.5,5.7c0.6,0.2,1.1,0.4,1.7,0.6c0,0,28.6,7.3,28.6,7.3l14.3,4.8l1.5-11.1l-2-1.5
			l-8,1.8c-3.9-0.3-7.7-0.8-11.6-0.9c-2.2-0.1-4.1-0.5-6-1.5c-1.5-0.9-3.1-1.7-4.7-2.5C376.9,430.3,376.4,430.2,376.1,429.9z"/>
		<path class="st11" d="M387.1,439.3c3.5-0.8,6.7-2.3,9.8-4l-12.7-1l-8-4.3l-4.7-4.2c-5.5,1.9-11.1,3.5-16.7,4.8l10.4,3.6l21.2,5.4
			C386.5,439.5,386.8,439.4,387.1,439.3z"/>
		<path class="st13" d="M411.6,406.5c-2.1,1-3.9,2.6-5.7,4c-2.7,2.1-5.6,4-8.3,6.1c-0.6,0.5-1.3,0.9-1.9,1.4
			c-1.8,1.5-3.6,3.1-5.4,4.6c-2.8,2.3-5.4,5.1-8.5,7c-3.7,2.3-8,3.6-12,5.2l-7.5,1.8L350,434l-3,2.5l1.5,7.3l1.3,1.5l17.1-3.3
			c3.2-0.9,6.5-1.7,9.7-2.6c6.1-1.6,12.2-3.3,18.4-4.9c4-1.1,8.2-1.8,12.1-3.2c1.2-0.4,2.4-1.4,3.5-2.1c1.6-1,3.3-2,4.9-3.1
			c3.3-2,6.5-4.2,9.9-6.1c2.5-1.4,4.4-4.2,6.3-6.2c0.8-0.9,1.4-1.9,1.4-3.1c0-1.5-0.8-3.3-1.3-4.7c-0.5-1.4-1.4-2.5-3-2.8
			c-4.6-1-9.6,1.4-14.1,2.3C413.5,405.6,412.5,406,411.6,406.5z"/>
		<path class="st11" d="M369.8,434.7c1.2-0.4,2.2-1,3.3-1.7c-2.7-1.1-5.2-2.7-8-4c-1.3-0.6-2.6-1.2-3.9-1.8
			c-6-1.3-11.6-3.1-16.9-6.3c-4.8-2.8-14-8.3-15.4-14.8c-0.6-0.4-1.2-0.8-1.8-1.2c-0.2-0.1-0.3-0.2-0.4-0.3
			c-0.2,0.1-0.4,0.2-0.5,0.4c-0.7,0.7-0.8,2.7-1,3.7c-0.2,1.1-0.6,2.2-0.3,3.2c0.3,1,1.2,1.6,2,2.2c4.3,3,8.4,6.3,12.6,9.4
			c2.4,1.7,4.6,3.4,7.4,4.5c5.4,2.1,11,3.7,16.5,5.7c0.6,0.2,1.1,0.4,1.7,0.6c0,0,1.5,0.4,3.8,1C369.1,435,369.4,434.8,369.8,434.7z
			"/>
		<path class="st11" d="M407.5,433.7l-8,1.8c-3.9-0.3-7.7-0.8-11.6-0.9c-0.3,0-0.6,0-0.9-0.1c-0.3,0.3-0.6,0.5-1,0.7
			c-2.4,1.1-5,1.4-7.4,2.4c7.4,1.9,15.1,3.8,15.1,3.8l14.3,4.8l1.5-11.1L407.5,433.7z"/>
		<path class="st18" d="M365.1,429c-0.6-0.3-1.1-0.5-1.7-0.8c-2.1,1.3-4.3,2.3-6.5,3.2c2.2,0.7,4.4,1.4,6.5,2.2
			c0.6,0.2,1.1,0.4,1.7,0.6c0,0,1.1,0.3,2.8,0.7c0.2-0.1,0.3-0.1,0.5-0.2c1.7-0.5,3.3-1,5-1.5C370.6,432.1,367.9,430.4,365.1,429z"
			/>
		<path class="st18" d="M407.5,433.7l-8,1.8c-3.9-0.3-7.7-0.8-11.6-0.9c-0.4,0-0.7,0-1-0.1c-2.1,1.2-4.2,2.4-6.3,3.7
			c6.7,1.7,13.1,3.3,13.1,3.3l14.3,4.8l1.5-11.1L407.5,433.7z"/>
		<path class="st11" d="M416.5,411c-1.8,1.4-3.4,3-5.2,4.6c-7.8,6.7-16.9,12.5-25.8,17.6c-0.5,0.3-1,0.4-1.4,0.4
			c-3.4,1.6-6.8,2.3-10.4,3.5c-3.9,1.3-6.6,3.3-10.9,3.6c-4.9,0.3-9.6-0.7-14.4,1.1c-0.1,0-0.2,0.1-0.4,0.1l0.4,1.9l1.3,1.5
			l17.1-3.3c3.2-0.9,6.5-1.7,9.7-2.6c6.1-1.6,12.2-3.3,18.4-4.9c4-1.1,8.2-1.8,12.1-3.2c1.2-0.4,2.4-1.4,3.5-2.1
			c1.6-1,3.3-2,4.9-3.1c3.3-2,6.5-4.2,9.9-6.1c2.5-1.4,4.4-4.2,6.3-6.2c0.8-0.9,1.4-1.9,1.4-3.1c0-0.8-0.2-1.6-0.5-2.4
			C427.2,406.8,421.7,408.2,416.5,411z"/>
		<path class="st9" d="M360.5,341.8c1.7-1.1,3.7-1.5,6.1-2.3l3.5,36.6l0,9.4l-0.8,6c0,0-9.3-2.5-9.3-3.3c0-0.8-1.3-7-1.3-7
			l-8.5,16.5l-6.7-6l7.6-11.7c0.9-5.6,1.8-11.2,2.6-16.8c0.9-6,0.5-12.4,3.5-17.8C358.3,343.6,359.3,342.6,360.5,341.8z"/>
		<path class="st9" d="M407.2,354.7c-0.7-2.9-1.6-6.1-3.1-8.9c-5.3-2.6-10.6-5-16.3-6.4l-7.5,37.3l1.6,15.3l11.8-1.8l4.8-16.3
			l-0.5,6l6.6,16.9l6.3-2c0,0-4.1-15.4-4.1-15.4C404.2,371.3,409.1,362.9,407.2,354.7z"/>
		<path class="st19" d="M369.2,366.2l-0.1-1c-0.1,0.2-0.1,0.4-0.2,0.6c-1.3,5.5-5.4,18.9-1.3,25.2c0,0,0,0,0.1,0
			C369.8,383.2,369.5,374.2,369.2,366.2z"/>
		<path class="st19" d="M365,368c-1-0.8-3.7-0.4-3.5-2c0.8-5.6-1.4-9.8-2.7-15.2c-1.3,7.4-0.4,14.9-2.1,22.4
			c-1.8,7.9-5.1,15.2-8.6,22.4l2.3,2l8.5-16.5c0,0,0.2,1.2,0.5,2.5c-0.1-4.3,0.5-8.8,1.3-12.7C360.6,370.9,365,368.2,365,368z"/>
		<path class="st19" d="M405.6,387c-0.1-0.2-0.1-0.5-0.2-0.7c-0.2-0.8-0.5-1.6-0.8-2.4c-1.6-4.4,1.8-26.2,1-30.9
			c0-0.2-5.5,17.7-5.6,17.6c-0.2-0.1-0.2-4.9-0.3-7.1c0,0.1-0.1,0.2-0.1,0.2c-2.8,4.7-5.7,8.9-9.4,12.6c0.5,2.4,2.3,4.3,4.4,6.2
			c0.3-0.5,0.6-1,0.9-1.6c0.5-1,0.1,0.1-0.6,1.8c0.3,0.3,0.6,0.5,0.9,0.8l2.8-9.7l-0.5,6l6.6,16.9l3.9-1.3
			C407,392.8,406.4,389.9,405.6,387z"/>
		<polygon class="st12" points="393,339.3 396.7,343.5 389.4,344.5 395.5,355.1 380.3,376.7 383.4,360.9 387.9,338.8 		"/>
		<path class="st20" d="M398.7,416.4h-39c-2.4,0-4.4-2-4.4-4.4v-24.5c0-2.4,2-4.4,4.4-4.4h39c2.4,0,4.4,2,4.4,4.4V412
			C403.1,414.4,401.1,416.4,398.7,416.4"/>
		<path class="st21" d="M383.1,401.9L383.1,401.9c0,0.1-0.1,0.1-0.1,0.2c-0.2,0.5-0.4,0.9-0.7,1.3c-0.2,0.3-0.4,0.6-0.7,0.8
			c-0.4,0.3-0.7,0.4-1.2,0.2c-0.2-0.1-0.4-0.1-0.6-0.2c-0.4-0.1-0.8-0.2-1.2,0c-0.2,0.1-0.5,0.2-0.7,0.2c-0.3,0.1-0.6,0.1-0.9-0.1
			c-0.2-0.1-0.4-0.3-0.6-0.5c-1-1.2-1.5-2.6-1.4-4.2c0-0.6,0.2-1.2,0.6-1.7c0.6-0.8,1.5-1.1,2.4-0.8c0.2,0.1,0.5,0.2,0.7,0.3
			c0.2,0.1,0.4,0.1,0.6,0c0.3-0.1,0.5-0.2,0.8-0.3c1-0.3,2,0,2.5,0.7c0.1,0.1,0.1,0.2,0,0.3c-0.7,0.5-1,1.1-0.9,2
			C381.9,400.9,382.4,401.5,383.1,401.9"/>
		<path class="st21" d="M381.1,394.6c0,0.2,0,0.3,0,0.5c-0.1,0.8-0.8,1.6-1.5,1.8c-0.1,0-0.1,0-0.2,0c-0.2,0-0.3,0-0.3-0.2
			c0.1-1,0.8-1.8,1.8-2c0,0,0.1,0,0.1,0H381.1z"/>
		<path class="st22" d="M375.7,318.8c-0.8,0-1.4-0.6-1.4-1.4s0.6-1.4,1.4-1.4c0.8,0,1.4,0.6,1.4,1.4S376.5,318.8,375.7,318.8z
			 M375.7,317c-0.2,0-0.4,0.2-0.4,0.4c0,0.2,0.2,0.4,0.4,0.4c0.2,0,0.4-0.2,0.4-0.4C376.1,317.2,375.9,317,375.7,317z"/>
		<path class="st22" d="M384,321.5c-0.8,0-1.4-0.6-1.4-1.4s0.6-1.4,1.4-1.4c0.8,0,1.4,0.6,1.4,1.4S384.8,321.5,384,321.5z
			 M384,319.8c-0.2,0-0.4,0.2-0.4,0.4s0.2,0.4,0.4,0.4c0.2,0,0.4-0.2,0.4-0.4S384.2,319.8,384,319.8z"/>
		<path class="st15" d="M375.4,325.3c0,0,3.1,0.4,3.4,1.6c0,0,1.9-0.8,3.6,0.1c0,0-1.8,2-4,1.8C376.2,328.6,375.4,325.3,375.4,325.3
			z"/>
		<path class="st8" d="M377.9,314.1c-0.5-0.7-1.3-1.8-2.3-1.9c-0.8-0.1-2-0.1-2.7,0.6l-0.2-0.3c0.9-0.8,1.9-1.2,2.9-1.1
			c2.1,0.2,3.1,1.6,3.2,1.6l0.2,1.2C378.9,314.1,378.2,314.5,377.9,314.1z"/>
		
			<rect x="378.4" y="322.7" transform="matrix(0.3419 -0.9397 0.9397 0.3419 -54.9662 569.2454)" class="st11" width="1" height="2.3"/>
		<path class="st8" d="M401.3,303.1c-1.5-4.5-5-7.6-12.1-8.8c-4.6-0.8-7.2,0.1-8.6,1c0.1-0.1-1.6-1.6-1.8-1.7
			c-1.5-0.6-4.2,0.3-5.6,0.8c-1.8,0.7-3.3,1.9-4.5,3.4c-2.4,2.9-3.1,6.8-3.2,10.6c-0.1,3.4-0.1,7,0.1,10.4c0.1,1.4,0.4,4.3,1.7,5.6
			c0.6,3.2,1.9,6.4,4.2,9.2c0,0-6.6-17.8,5.6-27.9c0.7,5.9,4,13.9,15.1,19.7c1.7,0.9,3.2,1.6,4.6,2.3c3.3-1.3,3.5-3,3.8-6.9
			c0.3-4.8,0-9.5-0.8-14.2C399.4,305,400.2,303.8,401.3,303.1z M390.7,310.7l1.9,4.8C391.4,314.1,390.8,312.6,390.7,310.7z"/>
		<path class="st10" d="M381.9,300.2c0,0-2.6,18.2,16,24.1c0,0-13.6-10.3-8.3-25.3C389.6,299,383.8,297,381.9,300.2"/>
		<path class="st10" d="M392,299.9c0,0-6.6,11.5,4.3,20.5c0,0-6.4-10.6,1.2-19.3C397.5,301.2,394.2,298.3,392,299.9"/>
		<path class="st12" d="M364,339.6c-1.5,0.5-5.4,2.2-5.4,2.2l5.5,3.4l-5.3,9.5l11.3,21.2l-3.5-36.6L364,339.6z"/>
	</g>
	<path class="st9" d="M356.7,435.4c0,0-3.6,0-4.9,3.3c0,0,2.6,5.4,7.2,4.8l-4.2,1c0,0-4.6-2-5.3-5.5c0,0,2.2-4.4,5-4.3
		C354.6,434.7,356.6,434.9,356.7,435.4z"/>
	<polygon class="st9" points="350.6,438.5 347.1,438.3 347.4,439.1 350.3,439.5 	"/>
	<path class="st10" d="M376.6,295.9c0,0-2.2,4.7-1.2,8.2c0,0-7.8,3.7-8.3,14.9C367.1,319,365.4,300.3,376.6,295.9z"/>
</g>
<g id="Layer_1">
	<polygon class="st23" points="243.3,476.7 260.7,443.3 260.7,466.7 248,482.7 	"/>
	<g>
		<path class="st11" d="M313.4,383.7c0,0,0.2,2.1,1.7,2.1c1.5,0,3.4-5.4,3.4-5.4l0.2-4.4L313.4,383.7z"/>
		<polygon class="st23" points="237.3,478.7 251.3,490 255.3,486.7 242,470 		"/>
		<g>
			<polygon class="st15" points="192.3,399.7 199,414.3 225,403 215,386.3 			"/>
			<path class="st10" d="M230.9,427.9c0,3-8.5,5.5-18.9,5.5c-10.4,0-18.9-2.5-18.9-5.5c0-3,8.5-5.5,18.9-5.5
				C222.5,422.4,230.9,424.9,230.9,427.9"/>
			<polygon class="st13" points="205,307.4 198.2,320.2 211,329.4 220.2,312.8 233,312 233.3,310.1 233.5,302.3 237.9,300 
				234.9,295.1 234.3,281.3 221.6,284.3 211.5,287.8 			"/>
			<path class="st11" d="M219.6,313.9l0.6-1.1l7.2-0.5c-5.3-1.9-10.4-4.4-14.3-8.3c-2.1-2-3.6-4.4-4.7-6.8l-3.4,10.2l-6.8,12.8
				l6.5,4.7C208.7,319.9,213.5,316,219.6,313.9z"/>
			<path class="st22" d="M232.4,296.2c-0.8,0-1.4-0.6-1.4-1.4c0-0.8,0.6-1.4,1.4-1.4c0.8,0,1.4,0.6,1.4,1.4
				C233.8,295.5,233.2,296.2,232.4,296.2z M232.4,294.4c-0.2,0-0.4,0.2-0.4,0.4c0,0.2,0.2,0.4,0.4,0.4c0.2,0,0.4-0.2,0.4-0.4
				C232.8,294.5,232.6,294.4,232.4,294.4z"/>
			<path class="st24" d="M234.1,291.9c0,0-2.2,1.6-2.2,1.6s-0.6,4.5,0.8,4.9c2,0.5,2,0.1,2.5-2.1
				C235.4,294.9,235.8,291.8,234.1,291.9z"/>
			<path class="st25" d="M235.5,291.8l-4.4,0.8c0,0-0.3,5.2,1.1,5.6c2,0.5,2.5,0.3,3-2C235.4,294.9,235.5,291.8,235.5,291.8z"/>
			<path class="st25" d="M234.3,291.9c0,0-12.5,3.7-16.4,1.6"/>
			<path class="st11" d="M213,289c0.3,0.6,0.8,1.1,1.6,1.4c2.1,0.9,5.2-0.1,7.2-0.7c4.4-1.2,8.5-3.1,12.7-4.8l-0.2-3.6l-12.8,2.9
				l-8.7,3.1C212.9,287.9,213,288.5,213,289z"/>
			<path class="st26" d="M217.6,295.7c-2,3.4-4.4,8.9-4.7,9.4c-2.5,3.4-4.7,2.8-8.3,3.3c-0.7-3.9-2.8-8.7-4-12.5
				c-1.7-4.9-6.2-5.7-3.1-11.2c1.8-3.2,3.4-6.5,5.2-9.8l-3.5-4c0,0,8.9,0.5,9,0.5c3.6,0.2,6.8-1.8,10.3-2c3.3-0.2,5.7,1.5,8.7,2.5
				c2.9,1,5.6,2.3,7.4,4.8c0.7,1,3.2,3,3,4.3c-0.4,3.2-5.6,2-7.4,2.8c-2,0.9-2,2.5-2.4,4.6c-0.2,1.2-0.7,12.2-2.2,12
				c0,0-2.2-0.3-2.2-0.3c0.8-3.8,0.1-6-2.7-8.3C219.9,291.5,218.7,294,217.6,295.7z"/>
			<path class="st27" d="M327.6,352.3l-21.1-0.8c-1.1-0.1-2.1,0.5-2.7,1.4l-17.6,28.9c-1.1,1.9,0.1,4.2,2.3,4.4l21.1,0.8
				c1.1,0.1,2.1-0.5,2.7-1.4l17.6-28.9C331,354.9,329.8,352.5,327.6,352.3"/>
			<polygon class="st28" points="305.9,354.4 288.2,383.1 310.2,384 326.5,355.6 			"/>
			<path class="st29" d="M291.1,383.1C291.1,383.2,291.1,383.2,291.1,383.1l19.1,0.8l12.2-21.2C310.7,367.2,299.7,374.8,291.1,383.1
				z"/>
			<path class="st13" d="M290.1,371.3l13.1-0.8h10.1c0,0,11.7,4.1,11.3,5.8c-0.4,1.7-5.9-0.3-5.9-0.3l-4.3,8.1l-6.4-3.6l-15.4-3.4
				L290.1,371.3z"/>
			<polygon class="st23" points="256.4,400.4 290.1,401 299.7,415.1 249.3,490.2 250.7,501.7 258,510.9 255.3,514.7 249.6,516.1 
				238.7,504.4 230.5,493 239,483.4 241.4,482.1 273.5,413.8 			"/>
			<path class="st30" d="M254.8,481.8c-0.2,0.3-0.5,0.6-0.7,1c-0.8,1.2-1.6,2.4-2.3,3.7l3.7-5.5c-0.1,0.1-0.1,0.2-0.2,0.2
				C255.1,481.4,255,481.6,254.8,481.8z"/>
			<path class="st30" d="M264.7,432.5c4.2-0.2,8.4,1.3,12,4.8c1.7,1.7,3,3.9,3.9,6.3l19.1-28.5l-9.5-14.1l-33.7-0.5l17.1,13.3
				L264.7,432.5z"/>
			<path class="st31" d="M221.4,395.1c0,0-2.2-18.3-2.2-19.9c0.4-8.8,3.4-17.3,2.8-26.1c-0.4-6.5-2.8-12.7-5.1-18.8
				c-1.1-2.9-2.3-5.8-4.3-8.2c-2.4-2.8-5-3.4-8.4-3.7c-2.1-0.2-6.2-1.6-8.1-0.9c-5.8,13.1-9.9,27.1-10.9,41.5
				c-0.5,7.5-0.3,15.1,0.9,22.5c0.8,4.8,5.4,21.9,5.4,21.9s17.4-6.4,22.4-7.5l6.9-0.7L221.4,395.1"/>
			<path class="st32" d="M221.4,344.2c-6.9,0.2-13.9,0.1-20.8-0.3c0,0.1,0.1,0.3,0.1,0.4c2,6.7,3.3,10.1,5.6,15
				c3.3,2.6,6.6,5.2,9.7,8c1.5,1.4,2.6,3,3.5,4.8c0.8-7.7,3.1-15.2,2.6-23C222,347.5,221.7,345.8,221.4,344.2z"/>
			<path class="st32" d="M192.3,391.7c-0.1-0.1-0.2-0.2-0.4-0.3c-1.5-1.3-3-2.6-4.5-3.8c1.6,6.8,4.1,15.9,4.1,15.9s2.1-0.8,5.1-1.8
				C194.1,398.9,192.6,395.5,192.3,391.7z"/>
			<path class="st9" d="M219.4,397l-1.8,1.5L193.6,409c0,0,2.2,13.4,6.9,17.8c4.7,4.4,22.9,1.1,22.9,1.1l53.7-4.7l8.3,15.6
				l13.4,17.4l27.6,47.9l20.3-5.8c0,0-52.5-91.9-59.9-96.9c-7.4-4.9-62.4-2.2-62.4-2.2l-2-1.7l-0.9-0.8L219.4,397z"/>
			<path class="st19" d="M336.9,496.6c-3.6-4.6-7.4-9.2-10.4-14.3c-5-8.4-8-17.8-12.8-26.3c-4.4-7.9-11.9-15.1-18.3-23.8
				c-1-1.4-2.1-2.8-3.1-4.3c-0.5-0.7-0.8-1.1-0.9-1.3c-0.6-0.7-1.2-1.3-1.9-1.9c-0.6-0.4-5.7-3.8-6.2-4.1c-1.7-1.1,3.8-10.3,2-11.3
				c-2.2-1.3-8.3,7.4-10.7,6.3c0,0,0,0-0.1,0c-0.7-0.2,0.1-6.7-0.6-6.9c-1-0.3-3.4,5.7-4.3,5.5c-0.7,0-2.8-0.2-3.4-0.2
				c-1,0-6.3,0.7-4.5,0.3c-1.7,0.3-3.3,0.6-4.9,1c-3.6,0.8-7.1,1.7-10.6,2.9c-13.9,4.6-30.6,12.2-45.6,8.8c4.9,4.2,22.7,1,22.7,1
				l53.7-4.7l8.3,15.6l13.4,17.4l27.6,47.9l13.3-3.8C338.7,498.9,337.8,497.8,336.9,496.6z"/>
			<path class="st31" d="M205.8,348.2l30.7,25l10.6,6.5l47.9-1.6l-1.1-7.6c0,0-36.6,0.1-43.8-2.4c-7.2-2.5-34.6-45.8-34.6-45.8
				l-17.9-4.3l-1.1,22.9L205.8,348.2z"/>
			<path class="st33" d="M329.9,504.3c0,0,0.5,14.3,3.3,13.7c2.7-0.5,46.3-1.5,46.3-1.5s0.5-2.2,0.4-4.1c-0.1-3.9-8.9-6.3-10.7-6.1
				c-3,0.4-12.2-2.2-13.7-3.1c-1.6-1-3.1-1.9-4.7-2.8c-0.4-0.2-2.4-2.3-2.8-2.6L329.9,504.3z"/>
			<path class="st34" d="M231,512c-12.7,4.7-25.3,4.7-38,0v-84c12.7,5.4,25.4,5.7,38,0V512z"/>
			<polygon class="st35" points="352.6,497.9 326.3,507.3 322.7,500 348.9,490.6 			"/>
			
				<rect x="186.7" y="455.6" transform="matrix(0.7071 -0.7071 0.7071 0.7071 -274.8452 272.6278)" class="st34" width="10" height="25"/>
			<path class="st22" d="M233.4,306c-0.1,0-0.2,0-0.3,0c0,0-3.3,0.9-6-1.8c-0.2-0.2-0.5-0.2-0.7,0c-0.2,0.2-0.2,0.5,0,0.7
				c1.9,1.9,4,2.3,5.4,2.3c0.9,0,1.5-0.2,1.6-0.2c0,0,0,0,0,0C233.4,306.7,233.4,306.4,233.4,306z"/>
			<polygon class="st26" points="229.9,291 229.6,290 233.3,289 234.5,289.5 234.3,290.8 233.5,290.6 			"/>
			<polygon class="st26" points="205,274.5 206.1,273 211.5,266 211.5,275 202.5,275 			"/>
			<polygon class="st10" points="212,436.5 211.5,510 215.7,436.5 			"/>
			<polygon class="st10" points="201.5,436.5 201.5,508.5 207.5,437.5 203.5,436.5 			"/>
			<polygon class="st10" points="222.3,436.5 224.5,507 227.9,436.5 			"/>
			<polygon class="st10" points="220.9,510.5 218.7,440 215.3,510.5 			"/>
			<path class="st10" d="M184.3,460.9c-1.9,2-4.1,3.1-4.9,2.3c-0.8-0.8,0.1-3,2-5.1c1.9-2,4.1-3.1,4.9-2.3
				C187,456.5,186.2,458.8,184.3,460.9"/>
		</g>
		<polygon class="st36" points="205.9,278.2 203.3,281.8 208.8,280.9 207.4,280.2 220.1,277.8 225,279.5 231.6,278.5 229.6,276.2 
			216.3,273.7 210.4,276.8 209,273.7 208.1,277.4 		"/>
		<polygon class="st36" points="204.9,287.3 203.4,301.5 201.1,290.3 202.7,286.4 202.8,291.7 		"/>
		<path class="st19" d="M208.7,410.7c0,0,4.7,10,8.7,12l-1.3,6.7l-12-4.7l-4-12.7L208.7,410.7z"/>
		<polygon class="st19" points="225,403 218.7,418 234.7,403.3 		"/>
		<polygon class="st37" points="333.1,518 333,521.5 380,520 379.4,516.5 		"/>
	</g>
	<g>
		<ellipse class="st38" cx="400.4" cy="452.1" rx="13.3" ry="1.4"/>
		<rect x="393" y="440.3" class="st39" width="15.4" height="12.3"/>
		<circle class="st40" cx="400.6" cy="446.4" r="5.2"/>
		<circle class="st21" cx="400.6" cy="446.4" r="2.3"/>
		<rect x="395.8" y="459.7" class="st33" width="9.7" height="9.4"/>
		<rect x="391.5" y="431.8" class="st38" width="18.2" height="4.9"/>
		<path class="st38" d="M414.1,440c-8.2,2.3-17.3,2-27,0l4.3-3.6h17.9L414.1,440z"/>
		<path class="st38" d="M415.7,484.1c-9,5.2-20.9,5.9-30.2,0l4.8-4h20L415.7,484.1z"/>
		<path class="st38" d="M391.5,455.6h18.2v4.9c-4.6,1.1-11.2,0.8-18.2,0V455.6z"/>
		<polygon class="st38" points="387.1,452.3 414.1,452.3 409.9,455.9 392,455.9 		"/>
		<rect x="392.5" y="438.2" class="st38" width="0.9" height="14.9"/>
		<rect x="407.9" y="438.2" class="st38" width="0.9" height="14.9"/>
		<path class="st38" d="M410.9,480.7v-12.5c0-1.6-1.3-2.9-2.9-2.9h-14.6c-1.6,0-2.9,1.3-2.9,2.9v12.5H410.9z"/>
		<circle class="st33" cx="405.3" cy="470" r="2.4"/>
		<ellipse class="st38" cx="400.7" cy="431.9" rx="9.1" ry="1.4"/>
	</g>
	
		<radialGradient id="SVGID_1_" cx="399.5" cy="-579.5352" r="80.4931" gradientTransform="matrix(1 0 0 0.3044 0 660.9105)" gradientUnits="userSpaceOnUse">
		<stop  offset="0" style="stop-color:#F9EC06"/>
		<stop  offset="1" style="stop-color:#FFFFFF"/>
	</radialGradient>
	<ellipse class="st41" cx="399.5" cy="484.5" rx="80.5" ry="24.5"/>
</g>
<g id="Layer_8">
	<g>
		<polygon class="st33" points="607,425.5 554,500.8 558,501.5 615,427.8 		"/>
		<polygon class="st33" points="611.3,501.5 554,426.8 561.5,426.5 615,499.8 		"/>
		<polygon class="st33" points="587.3,495.8 582.7,495.8 579,427.5 588.2,426.5 		"/>
		<path class="st11" d="M535.7,409.3l-22.6,69.2l6.2,3.3c5.8-10.8,11.5-21.6,17.4-32.3c2.9-5.3,5.6-10.5,7-16.4
			c0.2-0.8,2.2-10.8,2.6-10.8c0,0,35-0.4,35-0.4l-7.3-17.1L535.7,409.3z"/>
		<path class="st18" d="M574.1,404.9l-38.4,4.5l-4.3,13.3c1.6,0.1,3.2,1.2,3.2,3.4c-0.3,18.9-8.3,37.6-17.3,54.7l2,1.1
			c5.8-10.8,11.5-21.6,17.4-32.3c2.9-5.3,5.6-10.5,7-16.4c0.2-0.8,2.2-10.8,2.6-10.8c0,0,35-0.4,35-0.4L574.1,404.9z"/>
		<path class="st9" d="M557.9,395.2c1.5,5.9,3,11.8,4.5,17.7c0.6,2.2,1,8.4,2.8,9.8c2.6,2.1,15.9,0.7,19.5,0.7
			c7.4,0.1,19.1-0.6,24.9-5.8c7.2-6.4,3.2-14.6,2.3-23.3c-10-1-20.1-2.5-30.1-3.8C581.8,390.6,557.9,395.2,557.9,395.2"/>
		<path class="st19" d="M593.7,406.3c0-0.1,0-0.2,0.1-0.3c-0.2-0.2-0.4-0.4-0.6-0.6c-1.4-1.6-2.1-3.2-3.1-5.1
			c-1.2-2.1-2.7-4.5-4.6-6.2c-0.2,0.2-0.3,0.5-0.5,0.7c0.7,2.3,1.8,4.6,2.8,6.9C589.7,403.6,592.2,405.3,593.7,406.3z"/>
		<path class="st19" d="M611.9,394.4c-1.9-0.2-3.7-0.4-5.6-0.6c-0.2,1.5-0.5,3-0.9,4.4c-0.1,0.4-0.3,0.8-0.5,1.1
			c-0.3,2-0.6,4-1.1,5.9c1.3,1.9,0.1,4.2-1.8,5c0,0.8-0.2,1.7-0.9,2.4c-4,4.4-8.3,3.2-13.9,3.4c-3,0.1-7,0.3-9.6-1.5
			c-1.7-1.2-2.8-3-5-2.3c-2.7,0.8-6.9,2.4-8.8-0.7c-0.6,0.1-1.2,0.1-1.8,0.1l0.3,1.3c0.6,2.2,1,8.4,2.8,9.8
			c2.6,2.1,15.9,0.7,19.5,0.7c7.4,0.1,19.1-0.6,24.9-5.8C616.9,411.2,612.8,403,611.9,394.4z"/>
		<path class="st13" d="M594.2,325.6l-2.7-17.2l-11.3,0.5l-1.5-10.4l-2.2-3l3.2-3.6l1-7.4l3.5-8.1c0,0,27.4-10,28.4,5.6
			c1,15.6-10.5,27.1-10.5,27.1l0,16.1L594.2,325.6z"/>
		<path class="st11" d="M612.7,282c-0.1-1.1-0.3-2-0.6-2.8c-2.9,5.2-6.4,9.9-10.1,14.3c-1.3,2.3-2.6,4.5-4.1,6.6
			c-1.3,1.8-2.7,3.8-4.4,5.3c-1.5,1.3-2.6,1.7-3.2,3.1l1.3-0.1l2.7,17.2l8-0.5l0-16.1C602.2,309.1,613.7,297.5,612.7,282z"/>
		<path class="st11" d="M600.8,279.6c-0.1-0.4-0.1-0.7,0-1.1c-5.5-0.9-11.5-0.7-17.3-0.1l-1.2,2.9c0.2,0.4,0.4,0.9,0.5,1.4
			c0,0.1,0,0.2,0.1,0.3c0.8,0.7,1.4,1.5,2.1,2.4c1.3,1.9,2.2,4.2,3.9,5.9c1.4,1.4,1.1,3.2,0.2,4.4c0.4,0.8,0.8,1.6,1,2.4
			c0.6,1.9-0.7,3.5-2.3,4.1c-0.8,0.3-1.6,0.7-2.4,1.2c7.4-0.8,12.6-4.7,15.6-10.3C601.4,288.7,601.5,284.2,600.8,279.6z"/>
		<path class="st11" d="M594.2,325.6L594.2,325.6l8-0.5l0-3.7C599.8,323.2,597.2,324.7,594.2,325.6z"/>
		<path class="st38" d="M614,348.3l-4.4,23.9l2.1,22.8l-28.2-4.3l3.3-21l-4.7-10.5c0,0-9.4-8-8.3-10.9c1.1-2.9,10.5-14.1,10.5-14.1
			l8.7-11.6l14.1-1.5C607.1,321.1,616.1,332.3,614,348.3"/>
		<path class="st42" d="M586.9,379.1c0.5-0.5,1.1-1.1,1.6-1.6c0.1-0.2,0.2-0.4,0.3-0.6c2-3.8,4.4-7.2,7-10.6c0.9-2.3,1.6-4.6,2.2-7
			c1.6-6.7,2.3-13.4,2.8-20.2c-1.6,1.4-2.6,2.6-2.9,4.7c-0.5,4-5,6.4-8.6,5.7c-0.3-0.1-0.6-0.2-0.9-0.3c-0.6,2.2-1.2,4.4-2,6.5
			c-0.8,2-1.6,4-2.4,6l4,7.5L586.9,379.1z"/>
		<path class="st42" d="M613,333.5c-0.3,2.5-1.3,4.7-3.6,6.2c-0.2,0.2-0.5,0.3-0.7,0.3c-1.2,9.1-2.5,18.4-6.1,26.9
			c-1.3,3.1-2.6,6.6-4.6,9.5c1.6,0.8,2.5,3.1,1.7,5c-0.8,1.8-2.1,3.1-3,4.8c0,0,0,0,0,0.1c0.5,0.4,0.9,0.8,1.4,1.3
			c1.4,0.9,2.9,1.6,4.5,2.4c1.2,0.6,1.7,1.6,1.8,2.6l6.7,0.6l-1.5-21l4.4-23.9C614.7,342.7,614.1,337.7,613,333.5z"/>
		<path class="st43" d="M614,348.3l-4.4,23.9l2.1,22.8l-28.2-4.3l3.3-21l-4.7-10.5c0,0-9.4-8-8.3-10.9c1.1-2.9,10.5-14.1,10.5-14.1
			l8.7-11.6l14.1-1.5C607.1,321.1,616.1,332.3,614,348.3"/>
		<path class="st13" d="M575.8,371.5l3.4-5.1l14-38c0,0,6.5-4.9,7.8-1.9c1.3,3,6.7,6.4,4.5,11.6c-2.3,5.2-6.5,7.5-6.5,7.5
			l-13.6,32.6l-47.4,13.6l-5.1-0.8l-7.8,4.5l-1.8-1l10.4-7.1l6.7-0.4L575.8,371.5z"/>
		<path class="st11" d="M602.3,328.6c-0.2,1.2-0.9,2.3-2.4,2.8c-2.3,0.8-4,2.1-5.4,3.7c0.2,10.6-3,22.2-9.6,30.8
			c-1.1,2.2-2.6,4.1-4.5,5.7c-13.1,10.9-30.8,12.5-45.5,19.9l2.9,0.4l47.4-13.6l13.6-32.6c0,0,4.2-2.3,6.5-7.5
			C607.2,334,604.3,331.1,602.3,328.6z"/>
		<path class="st15" d="M580.7,276.1c0,0,15.7,13.2,2.8,28.2c0,0,11.4-3.6,13.5-12.4c0.1-0.5,0.2-1,0.3-1.6
			c1.1-10,1.2,16.6-1.6,23.2c0,0-3.2,9.1-12.6,9.8c0,0,9.7,8.8,22.4-2.5c0,0,10.9,12.7,9.5,29.2c0,0,4-6.3,4-9.6
			c0,0,5.9,0.8,5.9,0.8c-1.7-2.7-4.3-5.8-5.2-8.8c2.7-0.6,5.8-0.3,8.6-0.4c-1.7,0.1-4.4-2.7-5.5-3.8c-4.9-4.9-7.1-11.6-6.7-18.5
			c0.3-5.3,1.7-10.4,2.5-15.6c0.7-5.2,0.8-10.7-1.5-15.5c-2.1-4.3-6-7.5-10.3-9.5c-2-0.9-4.7-2.1-7-2.1c-2.7,0-5.5,1.8-8,2.6
			l4.4,9.7l-6.1-9.2C589.9,270.3,584.8,267.6,580.7,276.1"/>
		<path class="st44" d="M583.5,304.2c0,0,0.3-0.1,0.9-0.3c7.1-9.9,9.9-24.6-0.7-31c-0.2-0.1-0.4-0.3-0.6-0.5
			c-0.8,0.9-1.6,2.1-2.3,3.6C580.7,276.1,596.4,289.3,583.5,304.2z"/>
		<path class="st44" d="M597.1,287.2c2-6.4,2.8-13.1-1.5-17.9c-0.3-0.3-0.5-0.6-0.6-1c-1.1,0.5-2.3,1-3.4,1.3l1.1,2.5
			C596,276.4,597.3,281.7,597.1,287.2z"/>
		<path class="st44" d="M604.2,286c1.7-2.1,3.1-4.4,3.3-7.2c0.3-3.4-1-6.9-2.3-10.2c-0.8-0.3-1.7-0.7-2.6-0.9
			C605.9,273.2,605.7,279.6,604.2,286z"/>
		<path class="st44" d="M614,279.1c0.2,0.3,0.5,0.6,0.6,1c1.8,5,1.8,9.5,0.8,14c0.7,0.5,1.2,1.4,1,2.6c-0.5,3.5-0.9,7.1-1.9,10.4
			c0.4,2,0.9,3.9,1.5,5.8c-0.1-1-0.1-2.1,0-3.1c0.3-5.3,1.7-10.4,2.5-15.6c0.7-5.2,0.8-10.7-1.5-15.5c-0.9-1.8-2-3.3-3.4-4.7
			C613.9,275.7,614.1,277.4,614,279.1z"/>
		<path class="st44" d="M604.1,319.8c-0.2,0-0.4-0.1-0.6-0.1c-5.2,3.7-13.9,6.5-19.7,3.5c-0.3,0-0.5,0.1-0.8,0.1
			c0,0,9.3,8.4,21.5-1.8C604.4,320.9,604.2,320.3,604.1,319.8z"/>
		<path class="st44" d="M620.9,335.3c-0.6-1-1-1.9-1.3-2.9c1.4-0.3,3-0.4,4.5-0.4c-4.4-2.8-8.7-5.6-11.5-10.4
			c-1-1.8-1.9-3.6-2.6-5.5C611.8,323.7,614.3,331,620.9,335.3z"/>
		<path class="st45" d="M612.9,331.4c0.9,4.6,2.4,9,5,12.8c0.6-1.4,1-2.8,1-3.8l0.9,0.1C617,337.9,614.7,334.8,612.9,331.4z"/>
		<path class="st13" d="M557.9,395.2c-8.5,0.7-17,1.5-25.4,2.2c-2.6,0.2-5.8-0.2-8.3,0.8c-2.5,0.9-3,3.8-3.8,6
			c-1.3,3.5-2.5,7.1-3.8,10.6c-3.7,10.1-7.3,20.1-11,30.2c-1.8,5.1-3.7,10.2-5.5,15.3c1.8,1.4,3.7,2.8,5.4,4.4
			c3.5-5.4,6.8-11,10.3-16.4c4.2-6.6,9.2-12.9,12.4-20c2.8-6.2,4.6-12.9,6.9-19.3l30,14l-5.8-29"/>
		<path class="st11" d="M559.7,396.8l-0.6-2.8l-1.3,1.3c-8.5,0.7-17,1.5-25.4,2.2c-2.6,0.2-5.8-0.2-8.3,0.8
			c-0.8,0.3-1.4,0.9-1.9,1.5C534.7,398.4,547.4,399.4,559.7,396.8z"/>
		<path class="st11" d="M540.8,406.4c-3.4-0.3-6.7-0.6-9.8-0.8c-4.3,11.2-12.5,20.4-16.5,32c-3,8.6-4.9,18.6-10.3,26
			c0.4,0.4,0.9,0.7,1.3,1.1c3.5-5.4,6.8-11,10.3-16.4c4.2-6.6,9.2-12.9,12.4-20c2.8-6.2,4.6-12.9,6.9-19.3l30,14l-2.3-11.5
			C555.2,410.9,547.8,409.1,540.8,406.4z"/>
		<polygon class="st9" points="500.3,460 484.8,477.4 472.5,482.1 472.5,485.4 488.1,488.7 497.5,478.9 497.1,490.1 499.3,489.8 
			505.5,476.3 507.7,464.3 		"/>
		<polygon class="st9" points="513.1,478.5 505.1,491.2 497.9,501 488.1,504.3 488.1,507.5 505.8,507.5 512.7,495.2 514.9,508.3 
			517.5,508.3 520.7,492.3 521.8,483.2 		"/>
		<path class="st46" d="M551.2,418.5c22.1,7.9,43.6,8.3,64.2-0.7l0.4,8.7c-21.8,10.8-43.3,9.4-64.6-0.7V418.5z"/>
		<rect x="553.7" y="393" class="st35" width="11" height="29.7"/>
		<path class="st20" d="M563.3,394.3l-49.2,5c-0.2,0-0.4,0-0.6-0.1l-5.8-2.9c-1-0.5-0.7-2,0.4-2.1l49.2-5c0.2,0,0.4,0,0.6,0.1
			l5.8,2.9C564.7,392.7,564.4,394.2,563.3,394.3"/>
		<path class="st20" d="M525.9,398.1l-16.7,1.7c-1.3,0.1-2.5-0.7-2.9-1.9l-11-35.2c-0.5-1.7,0.6-3.4,2.4-3.6l16.7-1.7
			c1.3-0.1,2.5,0.7,2.9,1.9l11,35.2C528.8,396.2,527.6,397.9,525.9,398.1"/>
		<ellipse class="st47" cx="582.9" cy="291.2" rx="0.9" ry="0.8"/>
		<path class="st22" d="M583.2,292.6c-0.8,0.1-1.4-0.5-1.5-1.2c-0.1-0.8,0.5-1.4,1.2-1.5c0.8-0.1,1.4,0.5,1.5,1.2
			C584.5,291.8,583.9,292.5,583.2,292.6z M583,290.8c-0.2,0-0.4,0.2-0.3,0.4c0,0.2,0.2,0.4,0.4,0.3c0.2,0,0.4-0.2,0.3-0.4
			C583.4,290.9,583.2,290.8,583,290.8z"/>
		<path class="st48" d="M578.9,301l4,1.1l-3.9,0.7C578.9,302.7,578.2,302,578.9,301z"/>
		<path class="st48" d="M578.9,302.7l4-0.6l-3.2,2.3C579.7,304.4,578.6,303.9,578.9,302.7z"/>
		<path class="st48" d="M580.6,303.3c-0.2,0-0.4,0-0.7,0c-0.3,0-0.5-0.2-0.5-0.5c0-0.3-0.3-1.3,0-1.2c3.1,0.8,4.5-0.8,4.7-0.6
			C584.3,301.2,582.7,303.1,580.6,303.3z"/>
		<path class="st15" d="M585.7,289c-1.3-3.2-3.8-3.2-4.4-1.8l-0.1,1c0,0,1.5-2.7,3.9,1L585.7,289z"/>
		<path class="st38" d="M589.5,270.3l4.4-1.2c0,0,4.8,6.4,2.4,16.6C596.2,285.7,595.6,276.8,589.5,270.3z"/>
	</g>
	<path class="st28" d="M527,390.7c-0.6,0.2-13.5,3.1-19,4.7c-3,0.9-0.3,0.9-0.3,0.9l20.3-3.9L527,390.7z"/>
	<circle class="st28" cx="528" cy="395.1" r="1.9"/>
</g>
<g id="Layer_6">
	<g>
		<g>
			<path class="st23" d="M524,550.5c-10.9-2.3-56.1-12-67-14.3c-7.3-1.5-14.6-3.1-21.9-4.6c-6-1.3-17.4,0.9-18.3,8.4
				c-0.7,6.1,6.5,9.7,9.9,13.8l59.5,6.2L524,550.5z"/>
			<path class="st30" d="M511.8,547.9c-0.5,0.6-1.3,1-2.3,1c-22.9-0.1-45.7-3.2-68.5-3c-5.5,0-11.8,0.7-18.1,0.7
				c0.6,1,1.1,2,1.3,3.1c0.2,0.6,0.1,1.2,0,1.7c0.9,0.8,1.8,1.6,2.4,2.5l59.5,6.2l37.8-9.5C521.5,550,517.2,549,511.8,547.9z"/>
			<polygon class="st13" points="463.7,492 451.4,460.5 438.5,447.1 435.7,448.7 437.3,454.4 432.3,450.4 427.2,442.6 426.7,448.2 
				430,456 440.7,463.3 444.6,466.2 450.8,495.4 463.7,494.2 			"/>
			<path class="st11" d="M454.8,473.7c-3.2-7-7.6-13.4-11.8-19.9c-0.6-0.9-0.7-1.7-0.5-2.5l-4-4.2l-2.8,1.7l1.7,5.6l-5.1-3.9
				l-5.1-7.9l-0.6,5.6l3.4,7.9l10.7,7.3l3.9,2.8l6.2,29.2l8.5-0.7C458.9,487.5,457.8,480.2,454.8,473.7z"/>
			<path class="st13" d="M485.6,449.9l3.4,19.7l20.8-9.5l-7.1-19.6c0,0,4.3-6.8,4.3-14.6c0-7.9-31.5-22.5-33.7-12.4
				c-2.2,10.1-2.2,18-2.2,18l-2.8,5.1l3.9,0.6l1.1,9.5l2.8,3.9L485.6,449.9z"/>
			<path class="st11" d="M492.7,467.8l17.1-7.9l-7.1-19.6c0,0,4.3-6.8,4.3-14.6c0-5.5-15.2-14.2-25.2-15.6c0,1-0.4,2.1-1.6,2.8
				c-0.9,0.6-5,2.6-4.9,3.9c0,1.1,3.2,2.7,3.9,3.3c2.1,1.4,2.2,4.4,0,5.8c-2.4,1.5-4.2,2.7-5.3,4.3c0,0.1,0.1,0.2,0.1,0.2
				c0.8-0.1,1.6-0.2,2.4-0.3c4.3-0.4,4.3,6.3,0,6.7c0,0-0.1,0-0.1,0c0.4,2.5,0.3,5.1-0.3,7.6c7.3-0.7,14.6,0.4,17.7,8.3
				c1.6,4.1,2.4,9.4,0.1,13.4C493.6,466.8,493.2,467.3,492.7,467.8z"/>
			<path class="st11" d="M487.2,454.3c-0.3-0.5-0.6-0.9-1-1.3l1.8,10.2C489.5,461.5,487.8,455.4,487.2,454.3z"/>
			<path class="st49" d="M497.2,404.4c-5.4-2.1-13.4-1.8-18.9-0.4c-10.1,2.7-8.2,6.9-8.7,15.3c0.6,0.1,3.9,0.3,6.5,1.1
				c5,1.6,4.9,6.8,6.3,10.5c1,2.8,0.7,7.3,0.6,8.2c0.2-1.2,0,0.3,0,0.6c-0.1,0.7-0.1,1.4-0.2,2.1c-0.2,1.2-0.7,2.4-1.7,3.2
				c-2,1.7-4.4,1.4-6.9,1.7c0,0-0.1,0-0.1,0c-0.2,0.3-0.4,0.6-0.6,0.9c-0.4,0.8,1.4,3.1,2,3.4c0.8,0.4,2.4,0.1,3.3,0
				c4.5-0.4,7.2-1.2,7.3-6.3c0.1-2.9-0.6-5.7-0.5-8.2c0,0-1.5-8.3,0.1-8.7c0.9-0.2,2.9-0.3,3.7,1.3c0.7,1.5,0,4.6,0.7,6
				c0.7,1.4-0.7,2-0.1,4.3c0.8,0.6,1.3,1.6,1.2,2.6c0,0,0,0,0,0.1c1,1.6,2.2,2.7,2.2,2.7l9.3-4C509.8,427.3,515.5,411.6,497.2,404.4
				z"/>
			<path class="st49" d="M476,416c0,0-4.5,1-10-8c-4,5.5,4.5,12.5,4.5,12.5L476,416z"/>
			<path class="st49" d="M479.7,413.3c0,0-4.5,1-10-8c-4,5.5,4.5,12.5,4.5,12.5L479.7,413.3z"/>
			<path class="st49" d="M472.7,438.7c2.4-0.1,4.8-0.3,7.2-0.4c0.5,0,2.8,5.6,3.2,6.4l-3.8,1.8l-0.4-6l-6,1.8L472.7,438.7z"/>
			<path class="st22" d="M478.3,441.4c-0.2-0.2-0.5-0.3-0.7-0.1c-1.4,0.9-4,1.5-4.8,1.7c0.1,0.3,0.2,0.6,0.2,1
				c0.9-0.2,3.5-0.8,5.1-1.9C478.4,441.9,478.4,441.6,478.3,441.4z"/>
			<path class="st15" d="M485,506.7c0.3,0.1-2.4-2.4-0.5,0.8c1.3,2.1,1.1,7.4,1.1,9.8c0,0,3.9,16.9,3.9,16.9l1.9,16.4l35.2,1
				l-2.8-44.4c0,0-2.2-39.9-13.5-51.7c0,0-25.3,13.5-25.3,13.5c-1.5,0.8-1.9,8.2-2.3,9.9c-1.7,5.9-5.8,10.4-9.4,15.2
				c-1.5,1.9-2.4,3.5-2.8,5.7c0,0-1.5-7.8-1.5-7.8l-25.5,5.1l0.6,6.2c0,0,8.4,0,8.4,0c-0.4,0,1.1,10.5,1.5,11.7c1.3,4.3,5,7.1,5,7.1
				s9.8-4,13.3-7C474.5,513.1,481.7,505.6,485,506.7z"/>
			<path class="st17" d="M450.1,503.2c6.1-3.4,12.2-6.8,17.8-11l-24.4,4.8l0.6,6.2C444.1,503.2,447.6,503.2,450.1,503.2z"/>
			<path class="st17" d="M470,509.1c0.5,1.6,2-1.7,3.6-1.1c0.2,0.1-0.1,0.6-0.5,1.2c0.1,0,0.2,0,0.3-0.1c0.8-1.1,1.8-2.7,1.8-2.8
				c-1.5-4.5-1.1-3-3.7-7c-3.4,2.4-8.3,4.9-12.8,7.2c0.4,0.8,0.5,1.8,0.2,2.7c0.1,0.1,0.2,0.2,0.4,0.4c0.1,0.1,0.2,0.2,0.3,0.2
				c2.8-1.2,5.7-2.7,7.1-3.2c-0.3,0.6-1.5,3.2-2.7,5.8c0.6,0.3,1.2,0.5,1.9,0.7C468,510.5,469.7,507.9,470,509.1z"/>
			<polygon class="st15" points="510.4,455.5 504,448.7 485.3,457.3 482,472.7 			"/>
			<path class="st15" d="M485,506.7c0.3,0.1-2.4-2.4-0.5,0.8c1.3,2.1,1.1,7.4,1.1,9.8c0,0,3.9,16.9,3.9,16.9l1.9,16.4l35.2,1
				l-2.8-44.4c0,0-2.2-39.9-13.5-51.7c0,0-25.3,13.5-25.3,13.5c-1.5,0.8-1.9,8.2-2.3,9.9c-1.7,5.9-5.8,10.4-9.4,15.2
				c-1.5,1.9-2.4,3.5-2.8,5.7c0,0-1.5-7.8-1.5-7.8l-25.5,5.1l0.6,6.2c0,0,8.4,0,8.4,0c-0.4,0,1.1,10.5,1.5,11.7c1.3,4.3,5,7.1,5,7.1
				s9.8-4,13.3-7C474.5,513.1,481.7,505.6,485,506.7z"/>
			<polygon class="st15" points="510.4,455.5 504,448.7 485.3,457.3 482,472.7 			"/>
			<path class="st17" d="M501.3,492.4c-1.6,2.2-3.5,4.1-5.5,5.8c-2.5,2.1-5.5,4.4-8.7,5.8c0-0.1-1.1,0.5-2.5,1.5
				c0.3,0.9,0.5,1.9,0.7,2.8c0.1-0.1,0.3-0.1,0.4-0.2v8.4c6-1.7,11.8-7.4,15.4-12c0.1-0.2,0.2-0.3,0.3-0.5c0,0,0-0.1,0-0.1
				c0.1-1.7,0.8-4.3,1.3-6.9C502.4,495.5,501.9,494,501.3,492.4z"/>
			<path class="st17" d="M504.9,465.8c0.1,1.7-0.5,5.5,0.4,6.4c2.2,2.3,5.5,3.6,7.5,6.1c2.7,3.4,4.9,7.4,4.8,11.9
				c0,1.7-0.2,3.3-0.5,5c0.1,0.7,0.2,1.3,0.3,2c0.3,3.5-0.2,6.8-1.4,9.9c0.1,3.1,0.4,6.2,0.2,9.3c-0.3,4.9-1.8,8.8-3.7,13.3
				c-0.6,1.3-0.2,2.1-0.5,1.8c0.9,1,1.8,1.9,2.7,2.9c2.6,2.7,5.3,5.6,6.5,9.3c0.9,2.6,0.9,5.1,0.1,7.4l5.3,0.6l-2.8-44.4
				c0,0-2.2-39.9-13.5-51.7l-7.5,4C504,461.4,504.7,463.6,504.9,465.8z"/>
			<path class="st17" d="M503,459.9l7.3-4.4l-6.4-6.8l-10.1,4.7C497.8,453.8,501.1,456.5,503,459.9z"/>
			<path class="st9" d="M495.8,550.4c-13.3,0.6-26.6,1.1-39.9,1.7c-10.8,0.5-61.3-3.8-43,21c5.3,7.1,14.4,11.7,23.1,11.5
				c8.8-0.2,17.6-0.4,26.4-0.6c13.4-0.3,28.4-2.6,41.7-0.9c0,0,22.5,2.8,22.5-31.5C526.7,551.5,495.8,550.4,495.8,550.4"/>
			<path class="st19" d="M521.7,562c-5.7-0.2-9.4-1.8-14.3-4.4c0.6,0.3-0.6,0.5-1.4,0.9c-0.8,0.4-1.6,0.5-2.5,0.5
				c-2.2,0-3.3-1.9-4.2-3.6c-0.6-1-1.6-1.5-2.6-2.2c-0.7,0.2-1.5,0.4-2.2,0.6c-1.2,0.4-5.6,1-4.8,3c0.7,1.9,2.2,3.5,3.6,4.9
				c1.1,1.1,2.4,2.5,3.8,3.7c1.5,1,3.1,2,4.9,2.7c4.1,1.7,2.6,7.7-1.9,6.8c-3.9-0.8-10.2-5.1-14.1-10.2c-0.9-0.8-1.8-1.5-2.7-2.3
				c-0.2,0-0.5,0.1-0.7,0.1c-7.8,0.1-15.5,1.9-23.3,2.3c-3.9,0.2-10.5,0.9-14.1-1.9c-1.9,0.4-3.8,1-5.7,1.5
				c-0.3,0.5-0.7,0.9-1.2,1.2c-3.4,2-5.5,5.1-7.7,8.2c-1.1,1.6-3,2.2-4.8,1.3c-2.3-1.3-3.9-3.3-5-5.6c-0.8-1.8-1.7-5-4.4-3.4
				c-2.1,1.3-3.5,3.4-4.3,5.9c0.3,0.4,0.6,0.8,0.9,1.2c5.3,7.1,14.4,11.7,23.1,11.5c8.8-0.2,17.6-0.4,26.4-0.6
				c13.4-0.3,28.4-2.6,41.7-0.9c0,0,17.7,2.2,21.7-21.3C524.4,562,523,562.1,521.7,562z"/>
			<path class="st50" d="M446.3,571.1c-1.8,0.9-3.9,3.9-3.9,3.9s-4.1,7,2.2,11.2c5.9,4,17,1.8,23.6,1.3c7-0.6,13.6-2.5,12.9-8
				c-0.7-5.5-7.1-4.5-10.3-4.6c-2.4-0.1-4.5,2.4-7,2.6C459.2,577.9,450,569.2,446.3,571.1z"/>
			<polygon class="st49" points="470.2,425.2 469.9,428.2 474.7,428.8 474.7,426.4 			"/>
			<path class="st27" d="M448.3,458.1l-12.2,0.8c-1.1,0.1-2.2-0.5-2.8-1.5L419,434.1c-1.2-2,0.1-4.5,2.4-4.6l12.2-0.8
				c1.1-0.1,2.2,0.5,2.8,1.5l14.3,23.4C451.9,455.4,450.6,457.9,448.3,458.1"/>
			<polygon class="st28" points="436,431.6 421.5,432.6 436.1,455.9 449.5,454.3 			"/>
			<path class="st27" d="M443.4,452.9c0,0.6-0.7,1.1-1.6,1.1c-0.9,0-1.6-0.5-1.6-1.1c0-0.6,0.7-1.1,1.6-1.1
				C442.6,451.7,443.4,452.2,443.4,452.9"/>
			<path class="st22" d="M474,431.6l-0.9-0.3c0.1-0.2,0-0.4-0.2-0.5c-0.2-0.1-0.4,0-0.5,0.2l-0.9-0.3c0.3-0.7,1.1-1.1,1.8-0.8
				C473.9,430.1,474.2,430.9,474,431.6z"/>
			<path class="st51" d="M485,506.7c0.3,0.1-2.4-2.4-0.5,0.8c1.3,2.1,1.1,7.4,1.1,9.8c0,0,3.9,16.9,3.9,16.9l1.9,16.4l35.2,1
				l-2.8-44.4c0,0-2.2-39.9-13.5-51.7c0,0-25.3,13.5-25.3,13.5c-1.5,0.8-1.9,8.2-2.3,9.9c-1.7,5.9-5.8,10.4-9.4,15.2
				c-1.5,1.9-2.4,3.5-2.8,5.7c0,0-1.5-7.8-1.5-7.8l-25.5,5.1l0.6,6.2c0,0,8.4,0,8.4,0c-0.4,0,1.1,10.5,1.5,11.7c1.3,4.3,5,7.1,5,7.1
				s9.8-4,13.3-7C474.5,513.1,481.7,505.6,485,506.7z"/>
			<polygon class="st51" points="510.4,455.5 504,448.7 485.3,457.3 482,472.7 			"/>
		</g>
		<polygon class="st17" points="483.7,472 503.7,454.7 481.3,480.7 		"/>
	</g>
	<g>
		<path class="st26" d="M474.7,416.4c-0.1,0-0.2,0-0.2,0.1C474.6,416.4,474.6,416.4,474.7,416.4z"/>
		<path class="st26" d="M470.8,417.5C470.6,417.6,470.6,417.6,470.8,417.5L470.8,417.5z"/>
		<path class="st26" d="M471.2,417.4c-0.2,0.1-0.3,0.1-0.4,0.1C470.9,417.5,471,417.4,471.2,417.4z"/>
		<path class="st10" d="M484.5,408c-1.2,0.4-2,0-2,0v-2l-7.5,4l9,1.5l-3.9,2.2c0.3,0,0.5,0,0.8,0c13.6-4.7,23.2,6.2,21.1,9.3
			C507.4,415.9,496.7,404.3,484.5,408z"/>
	</g>
	
		<ellipse transform="matrix(0.9666 -0.2564 0.2564 0.9666 -80.0902 143.3057)" class="st21" cx="509.5" cy="378.8" rx="2.7" ry="4.7"/>
</g>
<g id="Fire" class="st52">
	<g class="st53">
		<path class="st54" d="M83,527.5c-3.4,1.1-7.8,1.4-10.5-1.4c-2.6-2.7-4.5-5.9-5.6-9.6c-1.6-5.7-0.9-12.1,1.8-17.3
			c-0.1,2.2,0.4,4.5,1.6,6.3c2.2-1.7,3-5,2.7-8c-0.3-3-1.4-5.7-2.3-8.5c-0.9-2.8-1.5-5.9-0.8-8.7c0.3,1.9,0.6,3.8,1.5,5.3
			c1,1.6,2.8,2.7,4.4,2.1c1.7-0.6,2.6-2.6,3-4.4c1.3-5.7-0.2-12.1-3.9-16.4c3.4,1.1,6.4,3.7,8.1,7.1c1.7,3.4,2,7.6,0.9,11.2
			c-0.3,1.1-0.8,2.2-0.8,3.4c0,1.2,0.7,2.5,1.8,2.6c1.3,0.1,2.1-1.3,2.6-2.6c2.2-5.9,1.7-12.9-1.2-18.4c3.9,1.7,6.6,6.2,6.5,10.8
			c1.3-4.6,5.9-7.8,10.3-7.1c-2.5,0.1-4.4,3-4.3,5.8c0.1,2.8,1.6,5.2,3.3,7.3c1.7,2.1,3.7,3.9,5,6.2c1.3,2.3,2,5.4,0.8,7.9
			c-1.5,3-5.5,4.6-5.6,8c-0.1,2.2,1.9,4.1,3.9,4.3c2,0.1,4-1.2,5.2-3c1.2-1.8,1.6-4.1,1.8-6.3c0.4-4.2-0.2-8.5-1.7-12.4
			c-0.5-1.4-1.2-2.7-1.2-4.2c0-1.5,0.8-3.1,2.2-3.3c-0.7,1.4-0.6,3.2-0.1,4.7c0.5,1.5,1.4,2.9,2.1,4.3c3.4,7,2.6,15.8-1.2,22.5
			c-3.9,6.7-10.5,11.1-17.6,12.7c-7.1,1.6-14.6,0.6-21.4-2.1c3.3,2.2,7.8,3.5,11.7,3.3L83,527.5z"/>
		<path class="st55" d="M89.8,531c1.5-0.7,2.5-6.9,4.1-7.2c0.8-0.2,7.9-3.7,8-3.6c-2.7-1.5-4.8-4.3-5.3-7.7c-0.5-2.9,0.2-6,1.8-8.3
			c1.2-1.8,3.6-2.9,3.5-5.5c-0.1-1.6-1.2-2.8-2.3-3.8c-1.1-1-5.5-5.1-5.2-6.9c-0.3,1.6-0.7,3.2-1.3,4.7c-1.1,3.1,1.1,11.7-5,19.1
			c-6.1,7.3-7.7-11.9-9.2-15c0.2,5.1-0.1,10-3.7,14c-0.8,0.9-1.8,1.7-2.2,2.8c-1.5,3.4,2.2,11.8,4.4,15.9
			C81.5,530.2,85.6,530.6,89.8,531"/>
	</g>
	<path class="st56" d="M76.7,59.3c-20.7,26-35.3,158,8.7,240.7s-4,153.3-4,153.3s-10,52,2.7,53.3c0,0-10-39.3,20-82
		s45.3-89.3-1.3-173.3C56,167.3,114,93.3,128,82.7c14-10.7-42.7-95.3-57.3-60C99.3,42,76.7,59.3,76.7,59.3z"/>
</g>
<g id="Layer_2_copy" class="st52">
	<g class="st57">
		<polygon class="st5" points="579,403.2 590.1,382.5 391.8,15 193.4,382.5 204.6,403.2 		"/>
		<polygon class="st5" points="406.4,403.2 262.2,136 118,403.2 		"/>
		<path class="st6" d="M241.3,319.2l7.7-53.8l54.3,87.4l-3.9-79.5l75.3,107L262.2,172.3l-56.6,104.8
			C217.2,291.8,241.3,319.2,241.3,319.2"/>
		<path class="st6" d="M389.3,196l-9.3-49.6l66.2,65.5l-15.9-57.5l75.3,107L393.3,53.3l-56.6,104.8C348.3,172.7,389.3,196,389.3,196
			"/>
		<polygon class="st5" points="697.7,403.2 569.5,165.7 441.4,403.2 		"/>
		<path class="st6" d="M558.1,297.1l4.7-32.9l33.1,53.4l-2.4-48.5l46,65.3l-68.6-127.1l-34.5,64
			C543.4,280.3,558.1,297.1,558.1,297.1"/>
	</g>
</g>
</svg>
